<?xml version="1.0" encoding="utf-8" standalone="no"?>
<!-- Creator: Esri ArcMap 10.2.0.3348 -->
<!DOCTYPE svg PUBLIC "-//W3C//DTD SVG 1.1//EN"  "http://www.w3.org/Graphics/SVG/1.1/DTD/svg11.dtd">
<svg width="566.98583pt" height="566.98583pt" viewBox="0 0 566.98583 566.98583" enable-background="new 0 0 566.98583 566.98583"
	version="1.1" xmlns="http://www.w3.org/2000/svg" xmlns:xlink="http://www.w3.org/1999/xlink" >
	<g id="__">
		<g id="gd_Merge1">
			<clipPath id="SVG_CP_1">
				<path d="M0,566.97964L0,0L566.98583,0L566.98583,566.97964L0,566.97964z"/>
			</clipPath>
			<path clip-path="url(#SVG_CP_1)" fill="none" stroke="#E60000" stroke-width="2.04432" stroke-miterlimit="10" stroke-linecap="round" stroke-linejoin="round" d="
				M180.80863,119.25653L179.90004,119.25653L178.53716,119.71085L177.17428,120.39231L173.53994,124.48111L163.31835,123.34533
				L144.23804,117.8936L142.19372,115.62205L144.01089,108.58024L155.36822,86.09186L156.95824,83.13884L163.0912,71.78108L196.70888,85.41039
				L230.78086,97.67678L240.32101,102.6742L240.77531,102.90135L245.77253,106.08153L240.54816,127.20697L236.00523,136.52034L206.02189,132.88585
				L204.88616,131.52292L206.70333,124.48111L206.47618,123.34533L195.8003,120.39231L180.80863,119.25653"/>
		</g>
	</g>
</svg>
