<?xml version="1.0" encoding="utf-8" standalone="no"?>
<!-- Creator: Esri ArcMap 10.2.0.3348 -->
<!DOCTYPE svg PUBLIC "-//W3C//DTD SVG 1.1//EN"  "http://www.w3.org/Graphics/SVG/1.1/DTD/svg11.dtd">
<svg width="566.98583pt" height="566.98583pt" viewBox="0 0 566.98583 566.98583" enable-background="new 0 0 566.98583 566.98583"
	version="1.1" xmlns="http://www.w3.org/2000/svg" xmlns:xlink="http://www.w3.org/1999/xlink" >
	<g id="__">
		<g id="gd_Merge1">
			<clipPath id="SVG_CP_1">
				<path d="M0,566.97964L0,0L566.98583,0L566.98583,566.97964L0,566.97964z"/>
			</clipPath>
			<path clip-path="url(#SVG_CP_1)" fill="none" stroke="#E60000" stroke-width="2.04432" stroke-miterlimit="10" stroke-linecap="round" stroke-linejoin="round" d="
				M262.80852,340.27864L262.35423,343.91313L257.8113,343.68597L253.26837,344.36744L249.63402,343.91313L246.45397,342.32304L
				242.13819,342.09589L242.36533,338.23425L235.32379,337.55278L238.2767,302.79802L305.28492,309.38552L301.42343,343.45882L295.06332,342.77735
				L294.60903,346.63899L290.97469,346.18468L290.0661,346.18468L287.56749,346.63899L284.84173,347.32046L281.88883,346.86615L
				280.07165,345.95753L278.25448,344.82175L275.07443,344.5946L274.39299,344.5946L274.84728,341.41442L262.80852,340.27864"/>
		</g>
	</g>
</svg>
