<?xml version="1.0" encoding="utf-8" standalone="no"?>
<!-- Creator: Esri ArcMap 10.2.0.3348 -->
<!DOCTYPE svg PUBLIC "-//W3C//DTD SVG 1.1//EN"  "http://www.w3.org/Graphics/SVG/1.1/DTD/svg11.dtd">
<svg width="566.98583pt" height="566.98583pt" viewBox="0 0 566.98583 566.98583" enable-background="new 0 0 566.98583 566.98583"
	version="1.1" xmlns="http://www.w3.org/2000/svg" xmlns:xlink="http://www.w3.org/1999/xlink" >
	<g id="__">
		<g id="gd_Merge1">
			<clipPath id="SVG_CP_1">
				<path d="M0,566.97964L0,0L566.98583,0L566.98583,566.97964L0,566.97964z"/>
			</clipPath>
			<path clip-path="url(#SVG_CP_1)" fill="none" stroke="#E60000" stroke-width="2.04432" stroke-miterlimit="10" stroke-linecap="round" stroke-linejoin="round" d="
				M85.86138,187.63028L77.00267,210.11866L72.45974,219.65918L69.96113,222.15789L66.32678,220.5678L67.00822,201.94107L63.14673,198.53374
				L60.19383,198.98805L28.39331,196.26218L24.98612,194.89925L22.03321,190.81046L20.21604,184.45011L20.44319,174.45527L21.57892,169.45786
				L24.30468,165.59622L31.34622,162.6432L49.29079,162.18889L54.28802,162.41604L71.7783,169.68501L73.14118,174.22812L72.45974,178.08976
				L74.7312,181.72424L77.45696,182.40571L85.86138,187.63028"/>
		</g>
	</g>
</svg>
