<?xml version="1.0" encoding="utf-8" standalone="no"?>
<!-- Creator: Esri ArcMap 10.2.0.3348 -->
<!DOCTYPE svg PUBLIC "-//W3C//DTD SVG 1.1//EN"  "http://www.w3.org/Graphics/SVG/1.1/DTD/svg11.dtd">
<svg width="566.98583pt" height="566.98583pt" viewBox="0 0 566.98583 566.98583" enable-background="new 0 0 566.98583 566.98583"
	version="1.1" xmlns="http://www.w3.org/2000/svg" xmlns:xlink="http://www.w3.org/1999/xlink" >
	<g id="__">
		<g id="gd_Merge1">
			<clipPath id="SVG_CP_1">
				<path d="M0,566.97964L0,0L566.98583,0L566.98583,566.97964L0,566.97964z"/>
			</clipPath>
			<path clip-path="url(#SVG_CP_1)" fill="none" stroke="#E60000" stroke-width="2.04432" stroke-miterlimit="10" stroke-linecap="round" stroke-linejoin="round" d="
				M306.87494,287.57861L309.6007,294.84758L309.14641,300.75362L307.55638,302.79802L296.8805,306.65966L282.34312,307.34113L280.2988,305.97819
				L280.07165,302.34371L282.79741,300.52647L294.60903,297.57345L296.8805,292.57603L286.6589,288.94155L282.57027,288.26008L280.52595,292.12172
				L275.75587,292.57603L261.21849,289.62301L257.58415,287.35146L257.8113,280.08249L265.98857,262.36438L270.07721,259.86567L
				279.84451,260.09282L285.75032,261.45575L306.87494,264.40877L306.6478,276.22085L306.6478,286.66999L306.87494,287.57861"/>
		</g>
	</g>
</svg>
