<?xml version="1.0" encoding="utf-8" standalone="no"?>
<!-- Creator: Esri ArcMap 10.2.0.3348 -->
<!DOCTYPE svg PUBLIC "-//W3C//DTD SVG 1.1//EN"  "http://www.w3.org/Graphics/SVG/1.1/DTD/svg11.dtd">
<svg width="566.98583pt" height="566.98583pt" viewBox="0 0 566.98583 566.98583" enable-background="new 0 0 566.98583 566.98583"
	version="1.1" xmlns="http://www.w3.org/2000/svg" xmlns:xlink="http://www.w3.org/1999/xlink" >
	<g id="__">
		<g id="gd_Merge1">
			<clipPath id="SVG_CP_1">
				<path d="M0,566.97964L0,0L566.98583,0L566.98583,566.97964L0,566.97964z"/>
			</clipPath>
			<path clip-path="url(#SVG_CP_1)" fill="none" stroke="#E60000" stroke-width="2.04432" stroke-miterlimit="10" stroke-linecap="round" stroke-linejoin="round" d="
				M263.94425,43.61382L264.62569,62.46771L261.89993,65.19357L229.19083,64.51211L166.27125,55.65305L165.81696,55.65305L156.7311,55.65305
				L154.68678,53.15434L153.09675,46.33968L154.91392,43.84097L159.45685,43.38666L182.6258,44.29528L206.47618,47.70261L206.70333,47.70261
				L237.59526,50.20132L238.04955,50.20132L244.40965,49.51986L246.68112,48.15692L248.27114,45.20391L248.72544,44.06813L249.17973,37.25347
				L246.45397,34.0733L233.05233,32.25605L230.32657,27.9401L230.32657,16.12803L233.50662,14.53794L239.63957,14.99225L255.76698,22.03406
				L258.03844,24.30562L263.94425,43.61382"/>
		</g>
	</g>
</svg>
