<?xml version="1.0" encoding="utf-8" standalone="no"?>
<!-- Creator: Esri ArcMap 10.2.0.3348 -->
<!DOCTYPE svg PUBLIC "-//W3C//DTD SVG 1.1//EN"  "http://www.w3.org/Graphics/SVG/1.1/DTD/svg11.dtd">
<svg width="566.98583pt" height="566.98583pt" viewBox="0 0 566.98583 566.98583" enable-background="new 0 0 566.98583 566.98583"
	version="1.1" xmlns="http://www.w3.org/2000/svg" xmlns:xlink="http://www.w3.org/1999/xlink" >
	<g id="__">
		<g id="gd_Merge1">
			<clipPath id="SVG_CP_1">
				<path d="M0,566.97964L0,0L566.98583,0L566.98583,566.97964L0,566.97964z"/>
			</clipPath>
			<path clip-path="url(#SVG_CP_1)" fill="none" stroke="#E60000" stroke-width="2.04432" stroke-miterlimit="10" stroke-linecap="round" stroke-linejoin="round" d="
				M156.95824,66.10219L167.86128,69.28237L169.4513,69.05521L176.71999,66.5565L191.71166,67.91944L196.70888,71.78108L197.84462,74.27978
				L199.20749,75.64272L201.93325,76.77849L202.61469,77.2328L256.22127,85.18324L259.85561,86.31902L263.03567,90.40781L262.80852,109.48886
				L259.85561,113.3505L219.42353,108.35308L217.83351,118.80222L258.26559,125.16257L262.80852,128.34275L258.26559,159.69018L
				252.58693,182.86002L252.58693,183.31433L251.67834,195.80787L247.36256,211.70874L243.04677,221.02211L238.2767,226.24668L231.68945,226.92815
				L229.19083,228.97255L227.82796,233.96996L219.87783,248.73506L217.37922,246.4635L221.24071,228.06393L223.28503,220.79496L
				226.01078,216.70616L224.42076,211.70874L205.34045,204.43977L208.74765,187.17597L208.74765,185.58588L207.15762,181.9514L205.5676,180.13416
				L190.57593,174.45527L188.9859,174.22812L186.71444,174.68243L185.5787,175.59105L181.94436,179.22553L169.67845,176.27252L157.18539,149.01388
				L156.50395,148.10526L151.73387,144.01646L151.96102,98.13109L154.45963,74.50694L156.95824,66.10219"/>
		</g>
	</g>
</svg>
