<?xml version="1.0" encoding="utf-8" standalone="no"?>
<!-- Creator: Esri ArcMap 10.2.0.3348 -->
<!DOCTYPE svg PUBLIC "-//W3C//DTD SVG 1.1//EN"  "http://www.w3.org/Graphics/SVG/1.1/DTD/svg11.dtd">
<svg width="566.98583pt" height="566.98583pt" viewBox="0 0 566.98583 566.98583" enable-background="new 0 0 566.98583 566.98583"
	version="1.1" xmlns="http://www.w3.org/2000/svg" xmlns:xlink="http://www.w3.org/1999/xlink" >
	<g id="__">
		<g id="gd_Merge1">
			<clipPath id="SVG_CP_1">
				<path d="M0,566.97964L0,0L566.98583,0L566.98583,566.97964L0,566.97964z"/>
			</clipPath>
			<path clip-path="url(#SVG_CP_1)" fill="none" stroke="#E60000" stroke-width="2.04432" stroke-miterlimit="10" stroke-linecap="round" stroke-linejoin="round" d="
				M280.52595,118.34791L280.75309,142.42638L276.21016,145.37939L258.26559,146.28802L211.9277,142.19922L181.26292,140.83629L
				177.85572,144.01646L176.71999,178.54407L174.67567,179.907L162.86405,180.58847L160.13829,182.86002L158.09398,192.17339L155.36822,193.99063
				L144.69233,193.99063L142.87516,190.5833L142.87516,172.86519L140.1494,169.91217L125.15773,168.09492L122.65912,162.87035L121.06909,145.37939
				L125.15773,119.71085L151.27958,118.34791L151.50673,118.34791L221.01356,113.3505L280.07165,109.48886L280.52595,118.34791"/>
		</g>
	</g>
</svg>
