<?xml version="1.0" encoding="utf-8" standalone="no"?>
<!-- Creator: Esri ArcMap 10.2.0.3348 -->
<!DOCTYPE svg PUBLIC "-//W3C//DTD SVG 1.1//EN"  "http://www.w3.org/Graphics/SVG/1.1/DTD/svg11.dtd">
<svg width="566.98583pt" height="566.98583pt" viewBox="0 0 566.98583 566.98583" enable-background="new 0 0 566.98583 566.98583"
	version="1.1" xmlns="http://www.w3.org/2000/svg" xmlns:xlink="http://www.w3.org/1999/xlink" >
	<g id="__">
		<g id="gd_Merge1">
			<clipPath id="SVG_CP_1">
				<path d="M0,566.97964L0,0L566.98583,0L566.98583,566.97964L0,566.97964z"/>
			</clipPath>
			<path clip-path="url(#SVG_CP_1)" fill="none" stroke="#E60000" stroke-width="2.04432" stroke-miterlimit="10" stroke-linecap="round" stroke-linejoin="round" d="
				M545.37878,125.16257L543.78876,127.43413L534.02146,126.97982L528.79709,126.29835L528.3428,130.84146L530.61426,130.6143L531.06855,133.79447
				L529.02424,159.23587L531.74999,162.41604L539.47298,163.77897L541.29015,165.82337L539.92727,181.49709L537.42866,184.67726
				L524.9356,184.22295L513.12398,178.31691L517.43976,145.15224L520.84696,130.38714L522.66413,126.5255L520.16552,121.75524L515.39544,120.84662
				L509.03534,120.39231L509.03534,114.94058L536.06578,116.53067L541.29015,116.75783L543.10732,116.75783L545.83308,118.80222
				L545.37878,125.16257"/>
		</g>
	</g>
</svg>
