<?xml version="1.0" encoding="utf-8" standalone="no"?>
<!-- Creator: Esri ArcMap 10.2.0.3348 -->
<!DOCTYPE svg PUBLIC "-//W3C//DTD SVG 1.1//EN"  "http://www.w3.org/Graphics/SVG/1.1/DTD/svg11.dtd">
<svg width="566.98583pt" height="566.98583pt" viewBox="0 0 566.98583 566.98583" enable-background="new 0 0 566.98583 566.98583"
	version="1.1" xmlns="http://www.w3.org/2000/svg" xmlns:xlink="http://www.w3.org/1999/xlink" >
	<g id="__">
		<g id="gd_Merge1">
			<clipPath id="SVG_CP_1">
				<path d="M0,566.97964L0,0L566.98583,0L566.98583,566.97964L0,566.97964z"/>
			</clipPath>
			<path clip-path="url(#SVG_CP_1)" fill="none" stroke="#E60000" stroke-width="2.04432" stroke-miterlimit="10" stroke-linecap="round" stroke-linejoin="round" d="
				M248.72544,77.68711L251.45119,78.36858L253.94981,77.45996L284.61458,83.366L286.6589,84.27462L289.38466,84.27462L290.0661,83.82031
				L295.06332,83.59315L360.02723,87.45479L364.34301,91.77074L365.70589,92.45221L382.51473,96.99532L385.24049,121.9824L389.10198,244.87342
				L389.55627,333.69114L389.10198,334.82692L389.32913,337.55278L390.46486,338.91571L390.46486,345.95753L390.69201,347.32046
				L392.50918,350.50063L397.5064,432.27654L396.37067,437.0468L396.59782,438.86405L399.32358,445.2244L400.23216,459.76233L397.5064,506.10202
				L395.68923,506.32917L391.60059,501.78607L389.10198,490.4283L383.42332,488.3839L380.24327,490.88261L376.38178,490.20115L375.24604,487.47528
				L375.47319,455.21923L375.47319,454.99207L366.84162,363.22133L369.34024,359.35969L370.70311,358.22391L371.83885,355.49805
				L370.47597,346.86615L372.52029,335.50838L372.52029,334.59976L371.15741,327.7851L370.24882,326.19502L369.34024,325.28639L
				368.2045,314.38294L369.34024,313.02001L368.88594,308.24975L367.97736,307.56828L367.06877,304.84242L362.07155,303.25233L360.02723,304.61526
				L355.4843,304.84242L351.39566,301.43509L342.3098,264.86308L342.08265,264.18162L320.95803,229.65401L320.50373,228.97255L289.83895,199.89667
				L288.93037,196.03503L291.20183,187.85744L290.52039,185.35873L288.93037,183.54149L288.24893,182.86002L280.98024,178.54407
				L279.84451,178.31691L268.94148,177.18114L243.50107,159.69018L241.68389,155.60138L235.77808,154.91992L233.05233,158.10009
				L228.0551,156.96432L218.51495,149.01388L217.37922,141.06344L220.33212,116.98498L220.10497,115.39489L217.37922,109.71601L
				216.47063,108.80739L209.88338,103.80997L204.65901,105.17291L199.66179,118.34791L189.21305,114.25912L185.12441,116.30352L
				183.08009,121.9824L173.76709,120.61947L166.95269,116.98498L167.40698,60.87762L187.85017,63.37633L191.93881,66.10219L192.62025,67.23797
				L194.66456,68.82806L248.72544,77.68711"/>
		</g>
	</g>
</svg>
