<?xml version="1.0" encoding="utf-8" standalone="no"?>
<!-- Creator: Esri ArcMap 10.2.0.3348 -->
<!DOCTYPE svg PUBLIC "-//W3C//DTD SVG 1.1//EN"  "http://www.w3.org/Graphics/SVG/1.1/DTD/svg11.dtd">
<svg width="566.98583pt" height="566.98583pt" viewBox="0 0 566.98583 566.98583" enable-background="new 0 0 566.98583 566.98583"
	version="1.1" xmlns="http://www.w3.org/2000/svg" xmlns:xlink="http://www.w3.org/1999/xlink" >
	<g id="__">
		<g id="gd_Merge1">
			<clipPath id="SVG_CP_1">
				<path d="M0,566.97964L0,0L566.98583,0L566.98583,566.97964L0,566.97964z"/>
			</clipPath>
			<path clip-path="url(#SVG_CP_1)" fill="none" stroke="#E60000" stroke-width="2.04432" stroke-miterlimit="10" stroke-linecap="round" stroke-linejoin="round" d="
				M104.71454,97.44963L103.80596,97.44963L102.44308,97.90394L101.0802,98.81256L97.44586,102.90135L87.22426,101.76558L68.14396,96.31385
				L65.87249,93.81514L67.91681,87.00048L79.27413,64.28495L80.86416,61.33193L86.99712,49.97417L120.6148,63.60349L154.68678,76.09703
				L163.99978,81.09444L164.68122,81.09444L169.67845,84.27462L164.45408,105.62722L159.91115,114.71343L129.92781,111.07894L128.79207,109.94317
				L130.60925,102.6742L130.3821,101.76558L119.70621,98.81256L104.71454,97.44963"/>
		</g>
	</g>
</svg>
