<?xml version="1.0" encoding="utf-8" standalone="no"?>
<!-- Creator: Esri ArcMap 10.2.0.3348 -->
<!DOCTYPE svg PUBLIC "-//W3C//DTD SVG 1.1//EN"  "http://www.w3.org/Graphics/SVG/1.1/DTD/svg11.dtd">
<svg width="566.98583pt" height="566.98583pt" viewBox="0 0 566.98583 566.98583" enable-background="new 0 0 566.98583 566.98583"
	version="1.1" xmlns="http://www.w3.org/2000/svg" xmlns:xlink="http://www.w3.org/1999/xlink" >
	<g id="__">
		<g id="gd_Merge1">
			<clipPath id="SVG_CP_1">
				<path d="M0,566.97964L0,0L566.98583,0L566.98583,566.97964L0,566.97964z"/>
			</clipPath>
			<path clip-path="url(#SVG_CP_1)" fill="none" stroke="#E60000" stroke-width="2.04432" stroke-miterlimit="10" stroke-linecap="round" stroke-linejoin="round" d="
				M186.71444,318.69889L186.26014,322.10622L181.71721,322.10622L177.17428,322.78769L173.53994,322.33338L170.35989,320.74329
				L166.0441,320.51613L166.27125,316.65449L159.22971,315.97303L162.18261,280.99111L229.19083,287.57861L225.32934,321.65191L
				218.96924,321.1976L218.51495,324.83208L214.8806,324.60493L213.97202,324.37777L211.24626,325.05924L208.74765,325.51355L205.79474,325.28639
				L203.97757,324.15062L202.1604,323.242L198.98035,323.01484L198.29891,322.78769L198.7532,319.83467L186.71444,318.69889"/>
		</g>
	</g>
</svg>
