<?xml version="1.0" encoding="utf-8" standalone="no"?>
<!-- Creator: Esri ArcMap 10.2.0.3348 -->
<!DOCTYPE svg PUBLIC "-//W3C//DTD SVG 1.1//EN"  "http://www.w3.org/Graphics/SVG/1.1/DTD/svg11.dtd">
<svg width="566.98583pt" height="566.98583pt" viewBox="0 0 566.98583 566.98583" enable-background="new 0 0 566.98583 566.98583"
	version="1.1" xmlns="http://www.w3.org/2000/svg" xmlns:xlink="http://www.w3.org/1999/xlink" >
	<g id="__">
		<g id="gd_Merge1">
			<clipPath id="SVG_CP_1">
				<path d="M0,566.97964L0,0L566.98583,0L566.98583,566.97964L0,566.97964z"/>
			</clipPath>
			<path clip-path="url(#SVG_CP_1)" fill="none" stroke="#E60000" stroke-width="2.04432" stroke-miterlimit="10" stroke-linecap="round" stroke-linejoin="round" d="
				M462.24316,89.9535L469.05756,94.26945L472.91905,93.58799L473.37334,93.13367L491.09077,96.08669L492.45365,98.81256L494.49797,115.84921
				L493.58938,125.38973L487.68357,127.66128L472.23761,127.66128L469.96614,125.16257L465.8775,124.70826L464.28748,125.84404L
				454.52018,127.88844L429.98835,130.6143L428.17118,127.20697L426.58116,117.8936L425.89972,104.94575L427.94404,87.22764L430.66979,80.18582
				L432.94126,79.95867L455.42876,88.81772L455.88306,88.81772L462.24316,89.9535"/>
		</g>
	</g>
</svg>
