<?xml version="1.0" encoding="utf-8" standalone="no"?>
<!-- Creator: Esri ArcMap 10.2.0.3348 -->
<!DOCTYPE svg PUBLIC "-//W3C//DTD SVG 1.1//EN"  "http://www.w3.org/Graphics/SVG/1.1/DTD/svg11.dtd">
<svg width="566.98583pt" height="566.98583pt" viewBox="0 0 566.98583 566.98583" enable-background="new 0 0 566.98583 566.98583"
	version="1.1" xmlns="http://www.w3.org/2000/svg" xmlns:xlink="http://www.w3.org/1999/xlink" >
	<g id="__">
		<g id="gd_Merge1">
			<clipPath id="SVG_CP_1">
				<path d="M0,566.97964L0,0L566.98583,0L566.98583,566.97964L0,566.97964z"/>
			</clipPath>
			<path clip-path="url(#SVG_CP_1)" fill="none" stroke="#E60000" stroke-width="2.04432" stroke-miterlimit="10" stroke-linecap="round" stroke-linejoin="round" d="
				M469.96614,172.18372L469.51185,175.81821L464.96892,175.59105L460.42599,176.27252L456.5645,175.81821L453.61159,174.22812L
				449.29581,174.00096L449.29581,170.13932L442.48141,169.45786L445.43432,134.7031L512.21539,141.06344L508.3539,175.36389L502.22095,174.68243
				L501.76665,178.31691L498.13231,178.08976L496.99658,177.8626L494.49797,178.54407L491.99935,178.99838L488.8193,178.77122L487.00213,177.8626
				L485.18496,176.72683L482.00491,176.49967L481.32347,176.49967L481.77776,173.3195L469.96614,172.18372"/>
		</g>
	</g>
</svg>
