<?xml version="1.0" encoding="utf-8" standalone="no"?>
<!-- Creator: Esri ArcMap 10.2.0.3348 -->
<!DOCTYPE svg PUBLIC "-//W3C//DTD SVG 1.1//EN"  "http://www.w3.org/Graphics/SVG/1.1/DTD/svg11.dtd">
<svg width="566.98583pt" height="566.98583pt" viewBox="0 0 566.98583 566.98583" enable-background="new 0 0 566.98583 566.98583"
	version="1.1" xmlns="http://www.w3.org/2000/svg" xmlns:xlink="http://www.w3.org/1999/xlink" >
	<g id="__">
		<g id="gd_Merge1">
			<clipPath id="SVG_CP_1">
				<path d="M0,566.97964L0,0L566.98583,0L566.98583,566.97964L0,566.97964z"/>
			</clipPath>
			<path clip-path="url(#SVG_CP_1)" fill="none" stroke="#E60000" stroke-width="2.04432" stroke-miterlimit="10" stroke-linecap="round" stroke-linejoin="round" d="
				M186.26014,408.65239L186.48729,411.60541L178.08287,412.05972L178.08287,410.92394L145.60092,411.1511L145.60092,409.1067L135.15218,409.1067
				L134.47074,385.25539L134.24359,385.25539L134.47074,367.53728L145.14662,367.76444L144.69233,349.36486L167.63413,348.91055
				L168.54272,348.91055L176.2657,349.1377L177.40143,350.72779L177.40143,356.86098L178.31002,356.86098L182.17151,357.08814L188.30446,357.08814
				L188.30446,361.17693L199.66179,361.40409L199.88893,385.02824L191.71166,385.02824L191.48451,387.98126L191.48451,394.11445
				L199.20749,394.11445L199.20749,408.42524L186.26014,408.65239M177.62858,384.80108L177.85572,393.8873L184.44297,393.20583L
				184.67012,387.7541L184.44297,385.02824L181.71721,385.02824L177.85572,385.02824L177.62858,384.80108M172.17706,396.61316L172.17706,392.97868
				L156.95824,393.20583L157.18539,396.61316L172.17706,396.61316M146.05521,389.57135L139.01367,389.57135L139.24081,395.47738
				L153.55105,395.47738L153.09675,390.02566L145.82806,390.25281L146.05521,389.57135"/>
		</g>
	</g>
</svg>
