<?xml version="1.0" encoding="utf-8" standalone="no"?>
<!-- Creator: Esri ArcMap 10.2.0.3348 -->
<!DOCTYPE svg PUBLIC "-//W3C//DTD SVG 1.1//EN"  "http://www.w3.org/Graphics/SVG/1.1/DTD/svg11.dtd">
<svg width="566.98583pt" height="566.98583pt" viewBox="0 0 566.98583 566.98583" enable-background="new 0 0 566.98583 566.98583"
	version="1.1" xmlns="http://www.w3.org/2000/svg" xmlns:xlink="http://www.w3.org/1999/xlink" >
	<g id="__">
		<g id="gd_Merge1">
			<clipPath id="SVG_CP_1">
				<path d="M0,566.97964L0,0L566.98583,0L566.98583,566.97964L0,566.97964z"/>
			</clipPath>
			<path clip-path="url(#SVG_CP_1)" fill="none" stroke="#E60000" stroke-width="2.04432" stroke-miterlimit="10" stroke-linecap="round" stroke-linejoin="round" d="
				M187.39588,277.12947L121.75053,269.17903L121.29624,268.72472L118.79763,267.58895L108.80318,268.72472L105.85028,266.45317
				L104.0331,257.82127L101.76164,255.54972L85.17994,253.05101L82.45419,246.91782L81.77275,245.78204L77.00267,241.9204L76.32123,232.60703
				L74.04976,229.88117L72.68689,229.65401L70.64257,226.47384L69.96113,210.34581L68.82539,186.94882L68.59825,171.95657L75.63979,166.95915
				L97.90015,165.14191L120.84195,166.27768L131.06354,166.27768L170.13274,166.27768L171.26847,167.64061L176.2657,167.64061L177.40143,166.50484
				L188.07732,164.6876L209.88338,165.82337L210.11053,177.63545L204.43186,181.72424L203.52328,182.86002L202.38755,185.58588L
				202.1604,186.4945L201.70611,207.39279L204.20472,210.57297L216.47063,212.39021L219.42353,211.25443L221.24071,208.30141L221.695,207.39279
				L223.51217,199.2152L236.23238,198.07942L239.18528,195.35356L242.36533,167.1863L246.22682,164.6876L436.34846,161.28027L438.84707,164.46044
				L438.84707,176.04536L435.21272,262.81869L431.57838,265.77171L387.7391,262.59153L387.51196,262.59153L358.8915,263.72731L358.4372,263.72731
				L335.04111,268.27041L334.58682,268.27041L305.73921,277.35663L243.27392,280.76396L228.96369,280.30964L209.42909,277.35663
				L187.39588,277.12947"/>
		</g>
	</g>
</svg>
