<?xml version="1.0" encoding="utf-8" standalone="no"?>
<!-- Creator: Esri ArcMap 10.2.0.3348 -->
<!DOCTYPE svg PUBLIC "-//W3C//DTD SVG 1.1//EN"  "http://www.w3.org/Graphics/SVG/1.1/DTD/svg11.dtd">
<svg width="566.98583pt" height="566.98583pt" viewBox="0 0 566.98583 566.98583" enable-background="new 0 0 566.98583 566.98583"
	version="1.1" xmlns="http://www.w3.org/2000/svg" xmlns:xlink="http://www.w3.org/1999/xlink" >
	<g id="__">
		<g id="gd_Merge1">
			<clipPath id="SVG_CP_1">
				<path d="M0,566.97964L0,0L566.98583,0L566.98583,566.97964L0,566.97964z"/>
			</clipPath>
			<path clip-path="url(#SVG_CP_1)" fill="none" stroke="#E60000" stroke-width="2.04432" stroke-miterlimit="10" stroke-linecap="round" stroke-linejoin="round" d="
				M105.85028,223.74797L105.85028,162.87035L105.85028,149.9225L105.85028,144.47077L112.66467,142.42638L145.14662,141.2906L213.74487,141.2906
				L216.69778,144.01646L220.55927,169.45786L221.46785,171.04794L225.55649,174.45527L226.46508,174.90958L232.82518,176.72683
				L233.73377,176.95398L241.2296,176.72683L242.59248,176.27252L247.13541,173.3195L248.044,172.41088L251.22405,166.95915L251.45119,166.27768
				L252.81407,159.46302L256.22127,156.28285L260.08276,155.37423L262.12708,152.87552L263.48996,140.83629L267.35145,138.33758
				L311.19073,137.42896L320.50373,138.33758L323.22949,140.38198L330.04389,208.98288L330.04389,209.21003L337.08543,255.54972
				L336.85828,261.45575L336.17684,263.273L336.85828,266.90748L338.44831,268.04326L339.35689,280.99111L341.40121,283.48982L358.21006,288.94155
				L359.80008,293.2575L359.34579,316.20018L356.39288,322.10622L353.66713,323.92346L352.53139,325.74071L349.35134,340.05149L
				347.76132,340.5058L345.717,344.14029L345.94414,345.50322L345.2627,348.45624L342.99124,349.59201L335.4954,347.77477L308.69212,334.59976
				L300.96913,329.37519L294.38188,321.42475L295.51762,315.97303L300.74199,312.79285L304.83062,316.20018L308.91926,315.97303
				L310.50929,314.38294L324.36522,312.33854L329.58959,313.24716L332.5425,311.88423L334.13253,309.15837L334.58682,307.11397L
				331.63391,291.66741L329.58959,289.62301L306.6478,282.12689L310.05499,265.77171L311.19073,264.63593L311.41787,260.77429L310.50929,259.63851
				L307.78353,235.56005L307.32924,234.65143L305.73921,231.69841L302.55916,230.10832L292.11042,232.15272L279.39021,231.2441L
				277.57304,231.92557L276.43731,232.60703L273.9387,229.42686L272.80297,220.79496L262.80852,221.24927L261.67279,252.36954L258.94703,259.63851
				L219.87783,262.36438L218.7421,262.59153L213.51773,265.31739L212.83629,265.77171L205.79474,272.81352L189.66734,269.8605L186.033,271.9049
				L184.89726,275.53938L178.31002,278.26525L169.22415,276.448L168.99701,266.45317L166.72554,263.50015L141.73943,258.04843L129.47351,253.27816
				L122.88627,248.5079L117.88904,233.51565L116.75331,232.15272L105.85028,224.20228L105.85028,223.74797"/>
		</g>
	</g>
</svg>
