<?xml version="1.0" encoding="utf-8" standalone="no"?>
<!-- Creator: Esri ArcMap 10.2.0.3348 -->
<!DOCTYPE svg PUBLIC "-//W3C//DTD SVG 1.1//EN"  "http://www.w3.org/Graphics/SVG/1.1/DTD/svg11.dtd">
<svg width="566.98583pt" height="566.98583pt" viewBox="0 0 566.98583 566.98583" enable-background="new 0 0 566.98583 566.98583"
	version="1.1" xmlns="http://www.w3.org/2000/svg" xmlns:xlink="http://www.w3.org/1999/xlink" >
	<g id="__">
		<g id="gd_Merge1">
			<clipPath id="SVG_CP_1">
				<path d="M0,566.97964L0,0L566.98583,0L566.98583,566.97964L0,566.97964z"/>
			</clipPath>
			<path clip-path="url(#SVG_CP_1)" fill="none" stroke="#E60000" stroke-width="2.04432" stroke-miterlimit="10" stroke-linecap="round" stroke-linejoin="round" d="
				M59.05809,70.87246L65.64534,75.18841L69.73398,74.50694L70.18827,74.05263L87.67856,76.77849L89.26858,79.73151L91.08575,96.541
				L90.40431,106.08153L84.4985,108.58024L69.05254,108.58024L66.78108,106.08153L62.69244,105.62722L61.10241,106.53584L51.33511,108.80739
				L26.80329,111.3061L24.98612,108.12592L23.16895,98.81256L22.48751,85.86471L24.75897,67.91944L27.25758,61.10478L29.75619,60.87762
				L52.01655,69.50952L52.47085,69.73668L59.05809,70.87246"/>
		</g>
	</g>
</svg>
