<?xml version="1.0" encoding="utf-8" standalone="no"?>
<!-- Creator: Esri ArcMap 10.2.0.3348 -->
<!DOCTYPE svg PUBLIC "-//W3C//DTD SVG 1.1//EN"  "http://www.w3.org/Graphics/SVG/1.1/DTD/svg11.dtd">
<svg width="566.98583pt" height="566.98583pt" viewBox="0 0 566.98583 566.98583" enable-background="new 0 0 566.98583 566.98583"
	version="1.1" xmlns="http://www.w3.org/2000/svg" xmlns:xlink="http://www.w3.org/1999/xlink" >
	<g id="__">
		<g id="gd_Merge1">
			<clipPath id="SVG_CP_1">
				<path d="M0,566.97964L0,0L566.98583,0L566.98583,566.97964L0,566.97964z"/>
			</clipPath>
			<path clip-path="url(#SVG_CP_1)" fill="none" stroke="#E60000" stroke-width="2.04432" stroke-miterlimit="10" stroke-linecap="round" stroke-linejoin="round" d="
				M394.32635,68.37375L392.73633,70.41814L382.96903,69.96383L377.74466,69.50952L377.29036,73.82547L379.56183,73.82547L380.01612,76.77849
				L377.9718,102.21989L380.69756,105.62722L388.42054,106.99015L390.23771,109.03455L388.87484,124.48111L386.37622,127.88844L
				373.88317,127.43413L362.07155,121.52809L366.38733,88.36341L369.79453,73.59832L371.6117,69.73668L369.11309,64.96642L364.34301,64.0578
				L357.98291,63.60349L357.98291,58.15176L385.01334,59.51469L390.23771,59.74185L391.82774,59.969L394.78064,61.78624L394.32635,68.37375
				"/>
		</g>
	</g>
</svg>
