<?xml version="1.0" encoding="utf-8" standalone="no"?>
<!-- Creator: Esri ArcMap 10.2.0.3348 -->
<!DOCTYPE svg PUBLIC "-//W3C//DTD SVG 1.1//EN"  "http://www.w3.org/Graphics/SVG/1.1/DTD/svg11.dtd">
<svg width="566.98583pt" height="566.98583pt" viewBox="0 0 566.98583 566.98583" enable-background="new 0 0 566.98583 566.98583"
	version="1.1" xmlns="http://www.w3.org/2000/svg" xmlns:xlink="http://www.w3.org/1999/xlink" >
	<g id="__">
		<g id="gd_Merge1">
			<clipPath id="SVG_CP_1">
				<path d="M0,566.97964L0,0L566.98583,0L566.98583,566.97964L0,566.97964z"/>
			</clipPath>
			<path clip-path="url(#SVG_CP_1)" fill="none" stroke="#E60000" stroke-width="2.04432" stroke-miterlimit="10" stroke-linecap="round" stroke-linejoin="round" d="
				M274.39299,79.73151L275.07443,98.5854L272.34867,101.31127L239.63957,100.6298L176.71999,91.77074L176.2657,91.77074L167.17984,91.77074
				L165.13552,89.27203L163.54549,82.45738L165.36266,79.95867L169.90559,79.50436L193.30169,80.18582L216.92492,83.82031L217.15207,83.82031
				L248.044,86.31902L248.49829,86.31902L254.85839,85.63755L257.12986,84.27462L258.94703,81.3216L259.17417,80.18582L259.85561,73.37116
				L257.12986,70.19099L243.50107,68.37375L240.77531,64.0578L240.77531,52.24572L243.95536,50.65563L250.08831,50.88279L266.21572,58.15176
				L268.48718,60.42331L274.39299,79.73151"/>
		</g>
	</g>
</svg>
