<?xml version="1.0" encoding="utf-8" standalone="no"?>
<!-- Creator: Esri ArcMap 10.2.0.3348 -->
<!DOCTYPE svg PUBLIC "-//W3C//DTD SVG 1.1//EN"  "http://www.w3.org/Graphics/SVG/1.1/DTD/svg11.dtd">
<svg width="566.98583pt" height="566.98583pt" viewBox="0 0 566.98583 566.98583" enable-background="new 0 0 566.98583 566.98583"
	version="1.1" xmlns="http://www.w3.org/2000/svg" xmlns:xlink="http://www.w3.org/1999/xlink" >
	<g id="__">
		<g id="gd_Merge1">
			<clipPath id="SVG_CP_1">
				<path d="M0,566.97964L0,0L566.98583,0L566.98583,566.97964L0,566.97964z"/>
			</clipPath>
			<path clip-path="url(#SVG_CP_1)" fill="none" stroke="#E60000" stroke-width="2.04432" stroke-miterlimit="10" stroke-linecap="round" stroke-linejoin="round" d="
				M167.40698,102.21989L178.31002,105.17291L179.90004,105.17291L187.16873,102.6742L202.1604,104.03713L207.15762,107.89877L208.29336,110.17032
				L209.65623,111.76041L212.38199,112.89619L213.06343,113.12334L266.89716,121.30093L270.30435,122.43671L273.48441,126.5255L
				273.25726,145.60655L270.30435,149.46819L229.87227,144.24362L228.5094,154.91992L268.71433,161.28027L273.25726,164.46044L268.71433,195.80787
				L263.03567,218.97771L263.03567,219.43202L262.35423,231.69841L257.8113,247.82644L253.49551,257.1398L248.72544,262.36438L242.13819,263.04584
				L239.63957,265.09024L238.2767,270.08766L230.32657,284.85275L228.0551,282.5812L231.68945,264.18162L233.73377,256.91265L236.45952,252.82385
				L234.8695,247.82644L215.78919,240.55747L219.19639,223.29366L219.19639,221.70358L217.60636,217.84194L216.01634,216.25185L
				201.25181,210.34581L199.43464,210.34581L197.39032,210.80012L196.02744,211.70874L192.3931,215.34323L180.12719,212.16305L167.63413,185.13157
				L166.95269,184.22295L162.18261,180.13416L162.40976,134.02163L164.90837,110.62463L167.40698,102.21989"/>
		</g>
	</g>
</svg>
